<svg width="48" height="48" viewBox="0 0 24 24" fill="none" xmlns="http://www.w3.org/2000/svg">
  <path d="M19 12H5M19 12C19.5304 12 20.0391 12.2107 20.4142 12.5858C20.7893 12.9609 21 13.4696 21 14V18C21 18.5304 20.7893 19.0391 20.4142 19.4142C20.0391 19.7893 19.5304 20 19 20H5C4.46957 20 3.96086 19.7893 3.58579 19.4142C3.21071 19.0391 3 18.5304 3 18V14C3 13.4696 3.21071 12.9609 3.58579 12.5858C3.96086 12.2107 4.46957 12 5 12M19 12L17 7C16.9231 6.77031 16.7726 6.57143 16.5718 6.42885C16.3709 6.28627 16.1294 6.20642 15.88 6.2H8.12C7.87061 6.20642 7.62906 6.28627 7.42818 6.42885C7.2273 6.57143 7.07688 6.77031 7 7L5 12M8 16H8.01M16 16H16.01" stroke="#1976D2" stroke-width="2" stroke-linecap="round" stroke-linejoin="round"/>
</svg>